<?xml version="1.0" encoding="UTF-8"?>
<svg id="Layer_2" data-name="Layer 2" xmlns="http://www.w3.org/2000/svg" viewBox="0 0 512.5 499.66">
  <defs>
    <style>
      .cls-1 {
        fill: #1e3101;
      }

      .cls-1, .cls-2 {
        stroke-width: 0px;
      }

      .cls-2 {
        fill: #99e83f;
      }
    </style>
  </defs>
  <g id="Layer_1-2" data-name="Layer 1">
    <path class="cls-1" d="M90.75,0h331c50.12,0,90.75,40.63,90.75,90.75v318.16c0,50.12-40.63,90.75-90.75,90.75H90.75c-50.12,0-90.75-40.63-90.75-90.75V90.75C0,40.63,40.63,0,90.75,0Z"/>
    <path class="cls-2" d="M110.85,350.39v-219.68c0-1.6.68-2.4,2.06-2.4,3.66,0,8.013-.057,13.06-.17,5.047-.113,10.49-.23,16.33-.35l18.57-.34c6.533-.12,13.007-.18,19.42-.18,17.42,0,32.087,2.18,44,6.54,10.757,3.631,20.566,9.62,28.71,17.53,6.905,6.854,12.241,15.124,15.64,24.24,3.219,8.869,4.85,18.235,4.82,27.67,0,18.34-4.24,33.467-12.72,45.38-8.536,11.974-20.534,21.048-34.38,26-15.431,5.551-31.732,8.288-48.13,8.08-5.047,0-8.6-.06-10.66-.18-2.06-.11-5.16-.17-9.28-.17v67.73c.208,1.493-.828,2.873-2.32,3.09-.255.04-.515.04-.77,0h-41.95c-1.6-.04-2.4-.95-2.4-2.79ZM158.29,169.56v71.17c2.973.233,5.723.347,8.25.34h11.34c8.321.12,16.611-1.04,24.58-3.44,6.812-2.023,12.9-5.959,17.54-11.34,4.467-5.267,6.7-12.6,6.7-22,.173-6.648-1.562-13.207-5-18.9-3.628-5.514-8.865-9.777-15-12.21-7.99-3.101-16.523-4.56-25.09-4.29-5.5,0-10.37.057-14.61.17-4.24.113-7.163.283-8.77.51l.06-.01Z"/>
    <path class="cls-2" d="M401,319.11v28.19c0,2.52-.917,4.01-2.75,4.47-4.513,1.41-9.104,2.559-13.75,3.44-5.445.97-10.969,1.428-16.5,1.37-14.9,0-26.587-3.897-35.06-11.69s-12.713-20.283-12.72-37.47v-85.26h-20.3c-1.83,0-2.75-1-2.75-3.09v-34.07c0-1.83,1-2.75,3.1-2.75h20.28c.227-3.893.513-8.42.86-13.58.35-5.15.8-10.31,1.38-15.47s1.08-9.34,1.54-12.54c.219-.684.558-1.324,1-1.89.446-.56,1.043-.979,1.72-1.21l40.95-5.12c.622-.185,1.288-.153,1.89.09.46.23.52.83.52,2-.46,5.273-.793,12.437-1,21.49-.207,9.053-.437,17.817-.69,26.29h32c1.38,0,2.07.92,2.07,2.75v34.73c.17,1.133-.592,2.196-1.72,2.4h-32.73v73.57c0,7.8,1.333,13.36,4,16.68,2.667,3.32,7.537,4.987,14.61,5,2.06,0,4-.05,5.85-.17s3.66-.29,5.5-.52c.624-.23,1.318-.168,1.89.17.624.545.929,1.37.81,2.19Z"/>
  </g>
</svg>